<svg fill="none" height="24" viewBox="0 0 24 24" width="24" xmlns="http://www.w3.org/2000/svg">
    <path d="M4.222 4.778A2.222 2.222 0 0 0 2 7v10a2.222 2.222 0 0 0 2.222 2.222h15.556A2.222 2.222 0 0 0 22 17V7s0-2.222-2.222-2.222z" fill="#ffac33"/>
    <path d="M22 10.333H2V7.556h20z" fill="#292f33"/>
    <path d="M19.778 15.889H4.222v-3.333h15.556z" fill="#f4f7f9"/>
    <path d="M12.556 15.333c-.947 0-1.301-.672-1.372-1-.304.023-.6.168-1.002.424-.426.27-.908.576-1.515.576-.665 0-1.07-.375-1.111-1.11-.002-.032.02-.105.011-.105-1.032 0-1.779.978-1.786.989a.555.555 0 1 1-.895-.658c.042-.058 1.064-1.338 2.67-1.338 1.076 0 1.137.764 1.154 1.049l.003.06c.27-.018.55-.196.873-.401.533-.339 1.196-.762 2.083-.535.484.124.56.574.588.743a.764.764 0 0 0 .027.125c.005 0 .082.05.321.073.456.041.957-.155 1.486-.363.549-.216 1.117-.439 1.728-.439 1.883 0 2.649.909 2.73 1.013a.556.556 0 0 1-.876.684c-.013-.015-.516-.585-1.854-.585-.401 0-.848.175-1.322.36-.56.22-1.351.438-1.941.438z" fill="#8899a6"/>
</svg>
