<svg height="24" viewBox="0 0 44 44" width="24" xmlns="http://www.w3.org/2000/svg">
    <path d="M33 15.06c0 6.439-5 7.439-5 13.44 0 3.098-3.123 3.359-5.5 3.359-2.053 0-6.586-.779-6.586-3.361C15.914 22.5 11 21.5 11 15.06c0-6.031 5.285-10.92 11.083-10.92C27.883 4.14 33 9.029 33 15.06z" fill="#ffd983"/>
    <path d="M26.167 36.5c0 .828-2.234 2.5-4.167 2.5s-4.167-1.672-4.167-2.5S20.066 36 22 36c1.933 0 4.167-.328 4.167.5z" fill="#ccd6dd"/>
    <path d="M26.707 14.293a.999.999 0 0 0-1.414 0L22 17.586l-3.293-3.293a1 1 0 1 0-1.414 1.414L21 19.414V30a1 1 0 1 0 2 0V19.414l3.707-3.707a.999.999 0 0 0 0-1.414z" fill="#ffcc4d"/>
    <path d="M28 35a2 2 0 0 1-2 2h-8a2 2 0 0 1-2-2v-6h12z" fill="#99aab5"/>
    <path d="M15.999 36a1 1 0 0 1-.163-1.986l12-2a.994.994 0 0 1 1.15.822.999.999 0 0 1-.822 1.15l-12 2a.927.927 0 0 1-.165.014zm0-4a1 1 0 0 1-.163-1.986l12-2a.995.995 0 0 1 1.15.822.999.999 0 0 1-.822 1.15l-12 2a.927.927 0 0 1-.165.014z" fill="#ccd6dd"/>
</svg>
