<svg height="24" viewBox="0 0 44 44" width="24" xmlns="http://www.w3.org/2000/svg">
    <path d="m38.074 22-4.832 3H32v-4c0-.088-.02-.169-.026-.256C35.436 19.864 38 16.735 38 13a8 8 0 0 0-16.001 0c0 1.463.412 2.822 1.099 4H18.92c.047-.328.08-.66.08-1a7 7 0 1 0-14 0 6.995 6.995 0 0 0 4 6.317V33a4 4 0 0 0 4 4h15a4 4 0 0 0 4-4v-3h1.242l4.832 3H39V22zM32.727 7.977a5.713 5.713 0 0 1 2.984 4.961l-3.531-.588a2.276 2.276 0 0 0-.583-.982zm-.9 6.342 3.552.592a5.713 5.713 0 0 1-4.214 3.669 3.985 3.985 0 0 0-1.392-1.148l.625-2.19a2.425 2.425 0 0 0 1.429-.923zM30 7.285c.282 0 .557.027.828.067l-1.131 3.392c-.404.054-.772.21-1.081.446L25.42 9.592A5.703 5.703 0 0 1 30 7.285zM24.285 13c0-.563.085-1.106.236-1.62l3.194 1.597-.002.023c0 .657.313 1.245.771 1.662L27.816 17h-1.871a5.665 5.665 0 0 1-1.66-4zm-9.088-.385A4.64 4.64 0 0 1 16.667 16c0 .344-.043.677-.113 1H14.1c.145-.304.233-.641.233-1a2.32 2.32 0 0 0-.392-1.292zM12 11.333c.519 0 1.01.105 1.476.261l-1.256 2.094c-.073-.007-.145-.022-.22-.022a2.32 2.32 0 0 0-1.292.392l-2.093-1.255A4.64 4.64 0 0 1 12 11.333zM7.333 16c0-.519.105-1.01.261-1.477l2.095 1.257c-.007.073-.022.144-.022.22 0 .75.36 1.41.91 1.837a3.987 3.987 0 0 0-1.353 1.895C8.083 18.881 7.333 17.533 7.333 16z" fill="#31373d"/>
    <g fill="#8899a6" transform="translate(4 4)">
        <circle cx="24" cy="19" r="2"/>
        <circle cx="9" cy="19" r="2"/>
        <path d="M24 27a2 2 0 0 0-2-2H11a2 2 0 0 0-2 2v6a2 2 0 0 0 2 2h11a2 2 0 0 0 2-2z"/>
    </g>
</svg>
