<svg height="24" viewBox="0 0 44 44" width="24" xmlns="http://www.w3.org/2000/svg">
    <path d="M39 24c0 2.209-1.791 2-4 2H9c-2.209 0-4 .209-4-2l2-12c.125-1.917 1.791-4 4-4h22c2.209 0 3.791 2.208 4 4z" fill="#67757f"/>
    <path d="M32 17a2 2 0 0 1-2 2H14a2 2 0 0 1-2-2V9a2 2 0 0 1 2-2h16a2 2 0 0 1 2 2z" fill="#ccd6dd"/>
    <path d="M34 21a2 2 0 0 1-2 2H12a2 2 0 0 1-2-2v-8a2 2 0 0 1 2-2h20a2 2 0 0 1 2 2z" fill="#e1e8ed"/>
    <path d="M36 25a2 2 0 0 1-2 2H10a2 2 0 0 1-2-2v-8a2 2 0 0 1 2-2h24a2 2 0 0 1 2 2z" fill="#f5f8fa"/>
    <path d="M39 35a4 4 0 0 1-4 4H9a4 4 0 0 1-4-4V24a4 4 0 0 1 4-4h26a4 4 0 0 1 4 4z" fill="#9aaab4"/>
    <path d="M26 5h-5a2 2 0 0 0-2 2v1h4a2 2 0 0 1 2 2h1a2 2 0 0 0 2-2V7a2 2 0 0 0-2-2z" fill="#fcab40"/>
    <path d="M22 9h-5a2 2 0 0 0-2 2v1h4a2 2 0 0 1 2 2h1a2 2 0 0 0 2-2v-1a2 2 0 0 0-2-2z" fill="#5dadec"/>
    <path d="M20 16a2 2 0 0 1-2 2h-5a2 2 0 0 1-2-2v-1a2 2 0 0 1 2-2h5a2 2 0 0 1 2 2z" fill="#e75a70"/>
    <path d="M29 32a2 2 0 0 1-2 2H17a2 2 0 0 1-2-2v-5a2 2 0 0 1 2-2h10a2 2 0 0 1 2 2z" fill="#67757f"/>
    <path d="M27 31a1 1 0 0 1-1 1h-8a1 1 0 0 1-1-1v-3a1 1 0 0 1 1-1h8a1 1 0 0 1 1 1z" fill="#e1e8ed"/>
</svg>
