<svg height="24" viewBox="0 0 44 44" width="24" xmlns="http://www.w3.org/2000/svg">
    <path d="M13.344 18.702h-2a.5.5 0 0 1-.5-.5v-7a.5.5 0 0 1 .5-.5h2a.5.5 0 0 1 .5.5v7a.5.5 0 0 1-.5.5z" fill="#a0041e"/>
    <path d="M9 20 22 7l13 13v17H9z" fill="#ffe8b6"/>
    <path d="M22 20h1v16h-1z" fill="#ffcc4d"/>
    <path d="M35 21a.997.997 0 0 1-.707-.293L22 8.414 9.707 20.707a1 1 0 1 1-1.414-1.414l13-13a.999.999 0 0 1 1.414 0l13 13A.999.999 0 0 1 35 21z" fill="#66757f"/>
    <path d="M22 21a.999.999 0 0 1-.707-1.707l6.5-6.5a1 1 0 1 1 1.414 1.414l-6.5 6.5A.997.997 0 0 1 22 21z" fill="#66757f"/>
    <path d="M14 30h4v6h-4z" fill="#c1694f"/>
    <path d="M14 21h4v4h-4zm12.5 0h4v4h-4zm0 9h4v4h-4z" fill="#55acee"/>
    <path d="M37.5 37.5A1.5 1.5 0 0 1 36 39H8a1.5 1.5 0 0 1 0-3h28a1.5 1.5 0 0 1 1.5 1.5z" fill="#5c913b"/>
</svg>
