<svg height="24" viewBox="0 0 44 44" width="24" xmlns="http://www.w3.org/2000/svg">
    <path d="M36 4H14a4 4 0 0 0-4 4v24H8a4 4 0 0 0 0 8h24a4 4 0 0 0 4-4V12a4 4 0 0 0 0-8z" fill="#ffd983"/>
    <path d="M12 14h24v-2H14l-2-1z" fill="#e39f3d"/>
    <path d="M14 4a4 4 0 0 0-4 4v24.555A3.955 3.955 0 0 0 8 32a4 4 0 1 0 4 4V11.445c.59.344 1.268.555 2 .555a4 4 0 0 0 0-8z" fill="#ffe8b6"/>
    <path d="M16 8a2 2 0 1 1-4.001-.001A2 2 0 0 1 16 8m-6 28a2 2 0 1 1-4.001-.001A2 2 0 0 1 10 36m24-17a1 1 0 0 1-1 1H15a1 1 0 0 1 0-2h18a1 1 0 0 1 1 1m0 4a1 1 0 0 1-1 1H15a1 1 0 1 1 0-2h18a1 1 0 0 1 1 1m0 4a1 1 0 0 1-1 1H15a1 1 0 1 1 0-2h18a1 1 0 0 1 1 1m0 4a1 1 0 0 1-1 1H15a1 1 0 1 1 0-2h18a1 1 0 0 1 1 1" fill="#c1694f"/>
</svg>
