<svg fill="none" height="24" viewBox="0 0 24 24" width="24" xmlns="http://www.w3.org/2000/svg">
    <path d="M14.222 20.333c0 1.228-4.444 1.228-4.444 0v-5.555a2.222 2.222 0 1 1 4.444 0z" fill="#c1694f"/>
    <path d="M16.444 3.667H7.556v11.11h13.333V8.112a4.444 4.444 0 0 0-4.445-4.444z" fill="#99aab5"/>
    <path d="M7.556 3.667A4.444 4.444 0 0 0 3.11 8.11v6.667H12V8.11a4.445 4.445 0 0 0-4.444-4.444" fill="#292f33"/>
    <path d="M20.889 9.222h-6.667a1.111 1.111 0 0 0 0 2.222h4.445v1.112a1.11 1.11 0 0 0 1.11 1.11h1.112A1.111 1.111 0 0 0 22 12.557v-2.223a1.111 1.111 0 0 0-1.111-1.11z" fill="#dd2e44"/>
</svg>
