<svg fill="none" height="24" viewBox="0 0 24 24" width="24" xmlns="http://www.w3.org/2000/svg">
    <path d="M20.889 9.222a1.111 1.111 0 0 1-1.111 1.111h-3.334a1.111 1.111 0 0 1-1.11-1.11V8.11A1.111 1.111 0 0 1 16.443 7h3.334a1.11 1.11 0 0 1 1.11 1.111v1.111zm-12.222 0a1.111 1.111 0 0 1-1.111 1.111H4.222a1.111 1.111 0 0 1-1.11-1.11V8.11A1.111 1.111 0 0 1 4.221 7h3.334a1.111 1.111 0 0 1 1.11 1.111v1.111z" fill="#dac8b1"/>
    <path d="M22 20.889A1.111 1.111 0 0 1 20.889 22H3.11A1.111 1.111 0 0 1 2 20.889V9.222a1.111 1.111 0 0 1 1.111-1.11H20.89A1.111 1.111 0 0 1 22 9.221V20.89z" fill="#f1dcc1"/>
    <path d="M14.222 7V5.889c0-.41-.224-.765-.555-.957v-.154a1.111 1.111 0 0 0-1.111-1.111h-1.112a1.11 1.11 0 0 0-1.11 1.11v.155a1.106 1.106 0 0 0-.556.957V7h-.556v15h5.556V7z" fill="#dac8b1"/>
    <path d="M10.889 7H9.778V5.889h1.11V7zm2.222 0h1.111V5.889h-1.11V7zm-.555 0h-1.112V5.889h1.112z" fill="#55acee"/>
    <path d="M11.444 18.111h-1.11v-7.778h1.11zm2.223 0h-1.111v-7.778h1.11v7.778z" fill="#3b88c3"/>
    <path d="M16.444 18.111h-1.11v-6.667h1.11zm2.223 0h-1.111v-6.667h1.11v6.667zm2.222 0h-1.111v-6.667h1.11v6.667zm-16.667 0h-1.11v-6.667h1.11zm2.222 0h-1.11v-6.667h1.11zm2.223 0H7.556v-6.667h1.11v6.667zm-4.445 1.667h-1.11v-1.111h1.11v1.11zm2.222 0h-1.11v-1.111h1.11v1.11zm2.223 0H7.556v-1.111h1.11v1.11z" fill="#55acee"/>
    <path d="M11.444 19.778h-1.11v-1.111h1.11v1.11zm2.223 0h-1.111v-1.111h1.11v1.11z" fill="#3b88c3"/>
    <path d="M16.444 19.778h-1.11v-1.111h1.11v1.11zm2.223 0h-1.111v-1.111h1.11v1.11zm2.222 0h-1.111v-1.111h1.11v1.11z" fill="#55acee"/>
    <path d="M4.222 22h-1.11v-1.667h1.11zm2.222 0h-1.11v-1.667h1.11zm2.223 0H7.556v-1.667h1.11V22zm2.777 0h-1.11v-1.667h1.11zm2.223 0h-1.111v-1.667h1.11V22zm2.777 0h-1.11v-1.667h1.11zm1.112 0h1.11v-1.667h-1.11zm3.333 0h-1.111v-1.667h1.11V22z" fill="#66757f"/>
</svg>
