<svg height="24" viewBox="0 0 44 44" width="24" xmlns="http://www.w3.org/2000/svg">
    <path d="M36.017 24.181 21.345 9.746C20.687 9.087 19.823 9 18.96 9H8.883C7.029 9 6 10.029 6 11.883v10.082c0 .861.089 1.723.746 2.38L21.3 39.017a3.287 3.287 0 0 0 4.688 0l10.059-10.088c1.31-1.312 1.28-3.438-.03-4.748zm-23.596-8.76a1.497 1.497 0 1 1-2.118-2.117 1.497 1.497 0 0 1 2.118 2.117z" fill="#ffd983"/>
    <path d="M13.952 11.772a3.66 3.66 0 0 0-5.179 0 3.663 3.663 0 1 0 5.18 5.18 3.664 3.664 0 0 0-.001-5.18zm-1.53 3.65a1.499 1.499 0 1 1-2.119-2.12 1.499 1.499 0 0 1 2.119 2.12z" fill="#d99e82"/>
    <path d="M12.507 14.501a1 1 0 1 1-1.415-1.414l8.485-8.485a1 1 0 1 1 1.415 1.414z" fill="#c1694f"/>
</svg>
