<svg viewBox="0 0 293 180" xmlns="http://www.w3.org/2000/svg">
    <path d="M8.1 1.8c-1.9.9-4.4 3-5.5 4.5C.5 9.1.5 9.8.5 90s0 80.9 2.1 83.7c1.1 1.5 3.6 3.6 5.5 4.5 3.2 1.7 11.8 1.8 138.4 1.8s135.2-.1 138.4-1.8c1.9-.9 4.4-3 5.5-4.5 2.1-2.8 2.1-3.5 2.1-83.7s0-80.9-2.1-83.7c-1.1-1.5-3.6-3.6-5.5-4.5C281.7.1 273.1 0 146.5 0S11.3.1 8.1 1.8zm81.4 40.9c5 2.6 11.8 9.8 14.2 15 1.6 3.4 1.8 7.1 1.8 34.8 0 29.4-.1 31.2-2.1 35.6-3.1 6.6-7.8 11.4-14.2 14.6-5.6 2.7-6.1 2.8-25.9 3.1l-20.3.4V39.9l21.3.3c19.5.3 21.5.5 25.2 2.5zM169 51v11h-33v20h20v22h-20v20h33v22h-22.5c-24.8 0-26-.2-30.9-6l-2.6-3.2V93.4c0-48-.1-47.6 6.3-51.4 2.9-1.8 5.2-2 26.5-2H169zm38.1 19.4c4.3 16.4 8 30.3 8.1 30.8.2.5 3.9-12.9 8.3-29.7 4.3-16.9 8.4-30.9 9-31.1.6-.3 6.3-.3 12.6-.2l11.6.3-12.3 46.2c-6.7 25.3-12.8 47.2-13.4 48.5-4.7 9-14.5 13.2-21.9 9.4-3.5-1.9-8.3-7.3-9.9-11.2-.6-1.6-6.4-22.7-12.8-46.8-6.4-24.2-11.8-44.6-12.1-45.3-.4-1.1 1.8-1.3 12.3-1.1l12.8.3z"/>
    <path d="M66 93v31h4.5c5.2 0 9.9-2.1 11.5-4.9.6-1.2 1-11.6 1-26.6V67.8l-2.9-2.9c-2.6-2.5-3.7-2.9-8.5-2.9H66z"/>
</svg>
