<svg height="180" viewBox="0 0 720 720" width="180" xmlns="http://www.w3.org/2000/svg">
    <circle cx="360" cy="360" fill="#0c6" r="322.469" stroke="#0c6" stroke-width="30.71"/>
    <g fill="#fff" fill-rule="evenodd" stroke="#fff">
        <path d="m312.1 512.7 189.4-331.91a10.029 10.029 0 0 1 13.661-3.744l27.848 15.825a9.985 9.985 0 0 1 3.744 13.634l-189.4 331.91a10.029 10.029 0 0 1-13.661 3.744l-27.848-15.825A9.986 9.986 0 0 1 312.1 512.7z"/>
        <path d="m152.919 375.428 214.208 127.088a9.986 9.986 0 0 1 3.491 13.7l-14.824 24.921a10.015 10.015 0 0 1-13.715 3.489L127.871 417.535a9.987 9.987 0 0 1-3.491-13.7l14.825-24.921a10.014 10.014 0 0 1 13.714-3.486z"/>
    </g>
</svg>
