<svg viewBox="0 0 45.76 32.66" xmlns="http://www.w3.org/2000/svg">
    <clipPath id="a">
        <path d="m7 27.21 1.47.05a15.13 15.13 0 0 0-1.76 4.51l-1.47-.05A15.13 15.13 0 0 1 7 27.21z"/>
    </clipPath>
    <clipPath id="b">
        <path d="m11.09 29 1.47.05c-4 3-5.4 3.53-6 3.51l-1.47-.05c.6.07 1.98-.51 6-3.51z"/>
    </clipPath>
    <clipPath id="c">
        <path d="m14 1.25 1.47.05C8.42 1.35 2.73 7.52 2.77 15a13.88 13.88 0 0 0 5.88 11.46l-1.48-.06A13.88 13.88 0 0 1 1.3 15C1.25 7.47 6.95 1.3 14 1.25z"/>
    </clipPath>
    <clipPath id="d">
        <path d="m11.1 28.19 1.47.05a12.18 12.18 0 0 0 2.54.36l-1.47-.05a12.18 12.18 0 0 1-2.54-.36z"/>
    </clipPath>
    <clipPath id="e">
        <path d="m15.08 29.43-1.47-.05h.55l1.47.05z"/>
    </clipPath>
    <clipPath id="f">
        <path d="m31.13 1.14 1.47.05h-.52l-1.47-.05z"/>
    </clipPath>
    <clipPath id="g">
        <path d="m31.18.31 1.47.05a13 13 0 0 1 9.07 4.17 14.88 14.88 0 0 1 4 10.2l-1.47-.05a14.88 14.88 0 0 0-4-10.2A13 13 0 0 0 31.18.31z"/>
    </clipPath>
    <clipPath id="h">
        <path d="m44.29 14.69 1.47.05A14.94 14.94 0 0 1 41.85 25a13.09 13.09 0 0 1-9.59 4.32l-1.47-.05A13.09 13.09 0 0 0 40.37 25a14.94 14.94 0 0 0 3.92-10.31z"/>
    </clipPath>
    <g clip-path="url(#a)">
        <path d="m7 27.21 1.47.05c-.36.69-.69 1.38-1 2L6 29.21c.27-.62.6-1.31 1-2m-.92 2.01 1.47.05a17.11 17.11 0 0 0-.63 1.65l-1.47-.05a17.11 17.11 0 0 1 .63-1.65"/>
        <path d="m5.45 30.86 1.47.05a5.23 5.23 0 0 0-.14.51l-1.47-.05a5.23 5.23 0 0 1 .14-.51m-.14.52 1.47.05a2 2 0 0 0 0 .2l-1.47-.05a2 2 0 0 1 0-.2m-.03.2 1.47.05a1 1 0 0 0 0 .11l-1.47-.05a1 1 0 0 1 0-.11m0 .11 1.47.05z"/>
    </g>
    <path d="m7.17 26.4 1.48.06 2.42 1.66-1.47-.05zm3.75 1.75 1.47.05.19.04-1.48-.05z"/>
    <g clip-path="url(#b)">
        <path d="m11.09 29 1.47.05c-4 3-5.4 3.53-6 3.51l-1.47-.05c.57 0 1.95-.51 6-3.51"/>
    </g>
    <g clip-path="url(#c)">
        <path d="m14 1.25 1.47.05a12.44 12.44 0 0 0-9.63 4.8L4.36 6A12.44 12.44 0 0 1 14 1.25"/>
        <path d="m4.36 6 1.47.05a13.73 13.73 0 0 0-1.12 1.69l-1.48-.05A13.73 13.73 0 0 1 4.36 6"/>
        <path d="m3.23 7.69 1.47.05A14 14 0 0 0 4 9.22l-1.52-.05a14 14 0 0 1 .75-1.48"/>
        <path d="M2.48 9.17 4 9.22a14.13 14.13 0 0 0-.53 1.44l-1.52-.06a14.13 14.13 0 0 1 .53-1.44"/>
        <path d="m1.95 10.6 1.47.05a14.28 14.28 0 0 0-.37 1.44L1.58 12a14.28 14.28 0 0 1 .37-1.44"/>
        <path d="m1.58 12 1.47.05a14.45 14.45 0 0 0-.22 1.51l-1.47-.05A14.45 14.45 0 0 1 1.58 12m-.22 1.56 1.47.05q-.07.71-.06 1.44v.21l-1.47-.05V15q0-.73.06-1.44m-.06 1.65 1.47.05a14.63 14.63 0 0 0 .16 1.86l-1.47-.05a14.63 14.63 0 0 1-.16-1.86m.16 1.86 1.47.05a14.37 14.37 0 0 0 .58 2.43L2 19.5a14.37 14.37 0 0 1-.58-2.43M2 19.5l1.47.05A13.74 13.74 0 0 0 6.85 25l-1.47-.05A13.74 13.74 0 0 1 2 19.5"/>
        <path d="m5.38 24.92 1.47.08a13.1 13.1 0 0 0 1.78 1.48l-1.47-.08a13.1 13.1 0 0 1-1.78-1.48"/>
        <path d="m7.16 26.4 1.47.05-1.46-.05"/>
    </g>
    <g clip-path="url(#d)">
        <path d="m11.1 28.19 1.47.05a12.2 12.2 0 0 0 1.21.24l-1.47-.05a12.2 12.2 0 0 1-1.21-.24"/>
        <path d="m12.31 28.43 1.47.05a12.09 12.09 0 0 0 1.33.12l-1.47-.05a12.09 12.09 0 0 1-1.33-.12m1.33.12 1.48.05z"/>
    </g>
    <g clip-path="url(#e)">
        <path d="m14.16 29.39 1.47.05h-.55l-1.47-.05z"/>
    </g>
    <path d="m30.61 1.13 1.48.06-16.62.11-1.48-.05z"/>
    <g clip-path="url(#f)">
        <path d="m31.13 1.14 1.47.05h-.52l-1.47-.05z"/>
    </g>
    <path d="m30.79 29.27 1.47.05-16.63.12-1.47-.05z"/>
    <g clip-path="url(#g)">
        <path d="m31.18.31 1.48.05-1.47-.05z"/>
        <path d="m31.19.31 1.47.05a12.84 12.84 0 0 1 1.41.13L32.6.44a12.84 12.84 0 0 0-1.41-.13"/>
        <path d="m32.6.44 1.47.05a12.73 12.73 0 0 1 1.33.27L33.93.71A12.73 12.73 0 0 0 32.6.44"/>
        <path d="m33.93.71 1.47.05a12.75 12.75 0 0 1 1.31.41l-1.47-.05a12.75 12.75 0 0 0-1.31-.41m1.31.41 1.47.05a12.9 12.9 0 0 1 1.35.6l-1.47-.05a12.9 12.9 0 0 0-1.35-.6"/>
        <path d="m36.59 1.72 1.47.05a13.2 13.2 0 0 1 1.48.89l-1.48-.06a13.2 13.2 0 0 0-1.48-.89"/>
        <path d="m38.06 2.6 1.47.05a13.8 13.8 0 0 1 1.87 1.56l-1.47-.05a13.8 13.8 0 0 0-1.87-1.56"/>
        <path d="m39.93 4.16 1.47.05.32.33A14.59 14.59 0 0 1 45 10l-1.47-.05a14.59 14.59 0 0 0-3.26-5.45l-.32-.33"/>
        <path d="M43.51 9.93 45 10a15.16 15.16 0 0 1 .61 2.56l-1.47-.05a15.16 15.16 0 0 0-.61-2.56"/>
        <path d="m44.12 12.49 1.47.05a15.57 15.57 0 0 1 .17 2l-1.47-.05a15.57 15.57 0 0 0-.17-2"/>
        <path d="m44.29 14.48 1.47.05v.21l-1.47-.05z"/>
    </g>
    <path d="M44.29 14.69A14.94 14.94 0 0 1 40.37 25a13.09 13.09 0 0 1-9.59 4.32l-16.63.11h-.55a13.19 13.19 0 0 1-2.51-.43c-4 3-5.4 3.53-6 3.51a.57.57 0 0 1-.37-.14c-.64-.51-.11-2.4 1.57-5.61A14.73 14.73 0 0 1 .48 15C.43 7 6.5.47 14 .42L30.61.31h.58a13 13 0 0 1 9.07 4.17 14.88 14.88 0 0 1 4.03 10.21zm-4.51 9.7a14.11 14.11 0 0 0 3.69-9.7 14.07 14.07 0 0 0-3.81-9.63 12.28 12.28 0 0 0-8.53-3.92h-.52L14 1.25C6.95 1.3 1.25 7.47 1.3 15a13.88 13.88 0 0 0 5.87 11.4l2.43 1.67-2.6-.86a15.13 15.13 0 0 0-1.76 4.51c.56-.1 2.43-1.18 5.48-3.46l.16-.11h.19a12.18 12.18 0 0 0 2.54.36h.52l16.62-.11a12.32 12.32 0 0 0 9-4.05"/>
    <g clip-path="url(#h)">
        <path d="m44.29 14.69 1.47.05q0 .77-.07 1.52l-1.47-.05q.07-.75.07-1.52"/>
        <path d="m44.22 16.21 1.47.05a15.48 15.48 0 0 1-.23 1.61L44 17.82a15.48 15.48 0 0 0 .23-1.61"/>
        <path d="m44 17.82 1.47.05a15.17 15.17 0 0 1-.39 1.53l-1.47-.05a15.17 15.17 0 0 0 .39-1.53m-.4 1.53 1.47.05a14.91 14.91 0 0 1-.56 1.51L43 20.86a14.91 14.91 0 0 0 .56-1.51M43 20.86l1.47.05a14.68 14.68 0 0 1-.79 1.56l-1.47-.05a14.68 14.68 0 0 0 .79-1.56"/>
        <path d="m42.25 22.42 1.47.05a14.51 14.51 0 0 1-1.19 1.74l-1.47-.05a14.51 14.51 0 0 0 1.19-1.74"/>
        <path d="m41.06 24.16 1.47.05q-.33.41-.68.79a13.09 13.09 0 0 1-9.59 4.32l-1.47-.05A13.09 13.09 0 0 0 40.37 25q.36-.38.68-.79"/>
    </g>
    <path d="M30.71.63 13.88.74C6.51.79.57 7.13.63 14.9a14.26 14.26 0 0 0 6.13 11.74h-.11S4.07 31.41 4.8 32s4.72-2.49 6.07-3.49a12.72 12.72 0 0 0 3.19.38l16.83-.11c7.37 0 13.3-6.39 13.25-14.16S38.08.58 30.71.63z" fill="#fff"/>
    <path d="M30.71.63 13.88.74C6.51.79.57 7.13.63 14.9a14.26 14.26 0 0 0 6.13 11.74h-.11S4.07 31.41 4.8 32s4.72-2.49 6.07-3.49a12.72 12.72 0 0 0 3.19.38l16.83-.11c7.37 0 13.3-6.39 13.25-14.16S38.08.58 30.71.63z" fill="none" stroke="#000" stroke-miterlimit="10" stroke-width="1.25"/>
    <path d="M9.62 24.93c.87.55 2.2 1.64 1.63 2.55s-2.85 1.84-3.72 1.29-.53-2.25.09-3.17 1.13-1.21 2-.67z" fill="#fff"/>
    <path d="m9.96 18.94 5.03-8.27 5.38 8.27 5.04-8.27 5.04 8.27 4.23-8.27" fill="none" stroke="#5fcec0" stroke-linecap="round" stroke-linejoin="round" stroke-width="1.8"/>
</svg>
