<svg height="24" viewBox="0 0 24 24" width="24" xmlns="http://www.w3.org/2000/svg">
    <path d="M11.2 17.444V9.667H5.6v7.777zm0-9.333V5.778c0-.206.084-.404.234-.55A.812.812 0 0 1 12 5h7.2c.212 0 .416.082.566.228s.234.344.234.55v12.444a.767.767 0 0 1-.234.55.812.812 0 0 1-.566.228H4.8a.812.812 0 0 1-.566-.228.767.767 0 0 1-.234-.55V8.89c0-.206.084-.404.234-.55a.812.812 0 0 1 .566-.23h6.4zm1.6-1.555v10.888h5.6V6.556zM6.4 15.11h4v1.556h-4zm7.2 0h4v1.556h-4zm0-2.333h4v1.555h-4zm0-2.334h4V12h-4v-1.556zm-7.2 2.334h4v1.555h-4z"/>
</svg>
